<svg width="110" height="110" viewBox="0 0 110 110" fill="none" xmlns="http://www.w3.org/2000/svg">
<circle cx="55" cy="55" r="55" fill="white"/>
<path d="M57.6401 36.4599C62.2393 36.4599 65.9677 32.7315 65.9677 28.1323C65.9677 23.5331 62.2393 19.8047 57.6401 19.8047C53.0409 19.8047 49.3125 23.5331 49.3125 28.1323C49.3125 32.7315 53.0409 36.4599 57.6401 36.4599Z" fill="black"/>
<path d="M66.1559 70.2378C65.9259 70.083 65.6672 69.9758 65.3952 69.9223C65.1231 69.8689 64.8431 69.8703 64.5716 69.9266C64.3001 69.9828 64.0426 70.0927 63.8141 70.2498C63.5857 70.4069 63.3909 70.6081 63.2413 70.8415C61.2287 73.8221 58.7632 76.4702 55.9338 78.6903C55.2468 79.2108 52.686 81.1886 51.6034 80.7722C50.854 80.5432 51.2912 79.065 51.4369 78.4405L52.5403 75.1719C52.9983 73.8395 60.972 50.1891 61.8464 47.4826C63.1372 43.527 62.5751 39.6338 56.6833 40.5707C55.0802 40.7372 38.8206 42.8399 38.5291 42.8608C38.2557 42.8785 37.9885 42.95 37.7427 43.071C37.4969 43.1921 37.2774 43.3603 37.0966 43.5662C36.9158 43.7721 36.7774 44.0116 36.6892 44.271C36.601 44.5304 36.5647 44.8046 36.5825 45.078C36.6003 45.3514 36.6717 45.6186 36.7928 45.8644C36.9138 46.1102 37.0821 46.3297 37.288 46.5105C37.4939 46.6912 37.7333 46.8297 37.9927 46.9179C38.2521 47.0061 38.5263 47.0423 38.7997 47.0246C38.7997 47.0246 45.0454 46.2126 45.7325 46.1502C46.0844 46.1158 46.4387 46.184 46.7527 46.3466C47.0667 46.5091 47.327 46.759 47.5021 47.0662C47.8793 48.2323 47.8276 49.4949 47.3564 50.6263C46.8151 52.7082 38.2584 76.8166 37.9878 78.2115C37.6975 79.3787 37.7781 80.6074 38.2184 81.7268C38.6587 82.8461 39.4367 83.8005 40.4444 84.4572C42.3359 85.7178 44.5879 86.3247 46.8567 86.1851C49.0628 86.1597 51.2446 85.7219 53.2898 84.8944C58.4737 82.8125 63.8867 77.2746 66.7389 72.9234C66.9845 72.4813 67.0608 71.965 66.9535 71.4708C66.8462 70.9765 66.5627 70.5383 66.1559 70.2378Z" fill="black"/>
</svg>
