<svg width="562" height="562" viewBox="0 0 562 562" fill="none" xmlns="http://www.w3.org/2000/svg">
<path d="M230.215 545.133C215.766 543.029 207.013 540.423 191.385 533.575L180.523 528.816L184.549 505.495C187.623 487.687 188.363 475.084 187.681 452.182C186.872 425.034 183.103 399.615 179.907 399.747C179.225 399.771 174.326 406.231 169.021 414.095C159.436 428.299 118.7 472.534 115.202 472.534C114.197 472.534 111.553 468.919 109.326 464.5C98.2014 442.419 91.8559 391.345 95.7778 355.449C97.1528 342.864 97.9593 332.249 97.5699 331.86C97.1802 331.471 88.8192 333.558 78.9891 336.499C69.159 339.439 60.7361 341.465 60.2717 341.001C58.6933 339.424 64.2839 312.996 69.5057 297.35C75.8479 278.347 88.8231 252.365 99.1562 237.977C107.652 226.148 106.839 224.492 92.3867 224.18C87.939 224.083 85.42 222.952 85.42 221.05C85.42 210.731 134.075 150.994 148.967 143.029C153.24 140.744 153.31 140.966 151.202 150.171C147.972 164.278 152.401 181.527 161.97 192.113C171.281 202.412 174.049 202.76 170.021 193.124C164.305 179.453 163.742 163.69 168.579 152.762C175.691 136.693 189.26 132.343 207.07 140.422C212.081 142.695 216.18 143.641 216.18 142.524C216.18 138.728 200.65 123.292 195.541 122.01C188.029 120.126 189.277 117.945 200.639 113.106C228.055 101.431 258.11 95.5324 290.303 95.5083C310.802 95.4921 312.412 95.8255 321.755 102.01C327.171 105.595 335.053 112.346 339.271 117.012L346.941 125.496V119.203C346.941 115.741 346 110.436 344.85 107.414C343.7 104.392 343.549 101.919 344.515 101.919C348.432 101.919 370.292 110.311 382.763 116.603C402.453 126.536 410.485 134.379 412.158 145.31C412.924 150.312 415.802 159.906 418.553 166.629L423.556 178.853L411.508 168.468C399.606 158.209 372.962 140.302 365.71 137.687C362.691 136.599 361.506 138.188 359.552 145.944C358.221 151.227 356.359 156.026 355.414 156.609C354.469 157.193 344.701 151.843 333.706 144.72C322.711 137.597 311.717 131.258 309.276 130.633C298.42 127.854 259.768 140.951 244.516 152.577L237.301 158.077L241.839 162.905L246.377 167.733L239.317 170.643C232.268 173.548 214.037 188.874 214.037 191.894C214.037 192.771 217.895 194.106 222.611 194.86C228.276 195.765 231.186 197.341 231.186 199.503C231.186 205.747 239.758 219.525 247.146 225.157C258.875 234.097 271.76 236.877 301.73 236.934C316.575 236.958 332.314 237.819 336.707 238.839C343.871 240.502 344.492 240.315 342.73 237.026C341.65 235.009 333.939 226.922 325.593 219.054L310.419 204.748H295.843C279.618 204.748 261.987 200.312 254.665 194.386L249.851 190.491L256.06 186.082C264.76 179.904 277.8 174.756 284.75 174.756C287.985 174.756 297.474 178.178 305.839 182.36C319.778 189.329 321.456 189.705 325.955 186.868C328.655 185.165 333.041 183.122 335.703 182.328L340.542 180.884L336.068 188.462C333.608 192.63 331.912 197.419 332.301 199.105C332.69 200.791 340.409 209.892 349.456 219.33L365.904 236.491L374.107 233.567C383.627 230.174 402.176 229.697 414.405 232.531C419.087 233.616 423.249 234.173 423.653 233.77C424.057 233.367 417.452 227.071 408.975 219.78C395.346 208.057 376.854 185.468 380.886 185.468C381.712 185.468 385.983 187.91 390.378 190.894L398.369 196.321L404.898 191.497C412.531 185.857 417.309 187.568 420.481 197.078C421.984 201.585 421.662 203.83 419.152 206.338C416.163 209.325 416.612 210.575 423.726 219.092L431.614 228.535L434.042 222.635L436.471 216.734L444.669 229.486C480.673 285.485 491.304 344.198 476.601 405.837C471.55 427.01 471.09 427.309 461.256 415.811L452.708 405.817L449.016 424.596C444.4 448.077 435.015 470.839 421.834 490.524C411.831 505.462 388.987 529.13 375.446 538.583L368.582 543.375L366.366 535.152C365.147 530.629 363.534 523.848 362.78 520.083C361.174 512.058 361.098 512.034 353.703 517.25C344.469 523.763 323.317 533.725 308.356 538.608C283.163 546.83 256.92 549.022 230.215 545.133ZM417.515 370.725C423.129 355.728 423.063 351.414 417.051 340.783C412.4 332.557 411.727 332.189 400.222 331.58C388.816 330.977 387.385 331.515 370.55 342.778C360.822 349.285 349.601 355.221 345.614 355.968C341.628 356.716 338.366 358.332 338.366 359.561C338.366 360.789 341.786 367.907 345.967 375.377L353.568 388.96L361.508 385.691C365.875 383.893 373.922 379.668 379.389 376.302L389.329 370.182L390.619 377.976C391.329 382.264 391.957 390.109 392.015 395.412L392.12 405.052L402.591 393.835C408.924 387.051 414.822 377.918 417.515 370.725ZM351.898 328.137C358.014 325.101 369.529 317.792 377.487 311.895L391.957 301.173V285.291V269.41L377.949 261.715C370.245 257.483 362.26 254.021 360.204 254.021C351.957 254.021 299.781 283.17 299.781 287.777C299.781 288.328 305.328 299.341 312.107 312.249L324.433 335.72L332.605 334.688C337.1 334.121 345.782 331.173 351.898 328.137ZM440.701 303.021C441.765 291.424 437.018 263.015 432.928 256.508C431.521 254.271 428.967 255.213 421.32 260.792L411.515 267.946L411.382 283.629C411.254 298.775 411.533 299.654 419.567 309.336C424.142 314.849 429.132 321.771 430.656 324.716L433.427 330.072L436.511 322.574C438.207 318.45 440.093 309.651 440.701 303.021ZM171.235 105.347C163.87 86.1075 157.525 72.208 152.041 63.3021L145.611 52.8574L156.78 59.4148C162.923 63.0214 171.74 68.7458 176.372 72.1355C181.005 75.5254 185.021 78.07 185.297 77.7906C185.573 77.5112 184.002 66.2279 181.805 52.7166C179.609 39.2053 178.125 27.8376 178.508 27.455C178.89 27.0721 191.074 34.994 205.582 45.0586C220.09 55.1231 232.552 63.3577 233.275 63.3577C233.997 63.3577 237.326 54.9589 240.671 44.6936C244.016 34.4284 248.382 22.1981 250.372 17.5149L253.99 9L268.646 32.9655C276.707 46.1465 284.007 56.9308 284.87 56.9308C285.732 56.9308 295.893 46.5675 307.449 33.9013C319.006 21.235 329.243 10.5506 330.198 10.1579C331.154 9.76519 332.04 15.5492 332.168 23.0115C332.296 30.4738 333.02 42.3262 333.776 49.3501L335.151 62.121L345.68 49.785C351.47 43.0003 358.915 35.5229 362.224 33.1684L368.239 28.8875L364.897 36.8817C363.059 41.2785 359.8 53.9282 357.656 64.9923C355.512 76.0563 353.363 85.5036 352.88 85.9865C352.397 86.469 344.351 85.3071 335.002 83.4031C314.571 79.2435 270.285 78.7257 250.478 82.4149C229.809 86.2647 204.146 94.5245 187.602 102.652C173.17 109.742 172.933 109.781 171.235 105.347Z" fill="black"/>
</svg>
