<?xml version="1.0" encoding="UTF-8" standalone="no"?>
<!-- Created with Inkscape (http://www.inkscape.org/) -->

<svg
   width="52.210323mm"
   height="66.445885mm"
   viewBox="0 0 52.210323 66.445885"
   version="1.1"
   id="svg1"
   xml:space="preserve"
   xmlns="http://www.w3.org/2000/svg"
   xmlns:svg="http://www.w3.org/2000/svg"><defs
     id="defs1" /><g
     id="layer1"
     transform="translate(-50.444903,-380.82531)"><path
       style="fill:#000000"
       d="m 71.454327,447.04059 c -1.78338,-0.25987 -2.86377,-0.58165 -4.79272,-1.42744 l -1.34065,-0.58783 0.49688,-2.88024 c 0.37941,-2.19938 0.47079,-3.75588 0.38655,-6.58441 -0.0999,-3.35293 -0.56501,-6.49224 -0.95956,-6.476 -0.0842,0.003 -0.68878,0.80086 -1.34362,1.77199 -1.18299,1.75436 -6.21109,7.21755 -6.64275,7.21755 -0.12412,0 -0.45048,-0.44649 -0.72525,-0.99219 -1.37315,-2.72709 -2.15637,-9.03502 -1.6723,-13.46838 0.16972,-1.55431 0.26926,-2.86533 0.2212,-2.91339 -0.0481,-0.0481 -1.08009,0.20975 -2.2934,0.57292 -1.21332,0.36316 -2.25294,0.61338 -2.31027,0.55605 -0.19481,-0.19481 0.49522,-3.45882 1.13974,-5.39118 0.78281,-2.34697 2.38433,-5.55584 3.65972,-7.33277 1.04862,-1.46099 0.94832,-1.66556 -0.83555,-1.70413 -0.54897,-0.0119 -0.85989,-0.15163 -0.85989,-0.38652 0,-1.27442 6.00547,-8.65225 7.84357,-9.63598 0.52737,-0.28224 0.53595,-0.25482 0.27578,0.88209 -0.39866,1.74218 0.14797,3.87256 1.32914,5.17997 1.14925,1.27208 1.49092,1.31503 0.99365,0.1249 -0.70549,-1.68848 -0.77499,-3.63519 -0.17796,-4.98486 0.87791,-1.98467 2.55263,-2.52191 4.75092,-1.52407 0.61846,0.28073 1.12448,0.39752 1.12448,0.25953 0,-0.46882 -1.91694,-2.37527 -2.54747,-2.53352 -0.92726,-0.23273 -0.77313,-0.5021 0.62924,-1.09968 3.38388,-1.44195 7.09352,-2.17048 11.06714,-2.17346 2.53014,-0.002 2.72882,0.0392 3.88203,0.80306 0.66848,0.44278 1.64139,1.27656 2.16203,1.85284 l 0.94661,1.04779 v -0.77728 c 0,-0.42751 -0.11611,-1.0827 -0.25803,-1.45597 -0.14192,-0.37328 -0.16056,-0.67869 -0.0414,-0.67869 0.48351,0 3.18159,1.03644 4.72096,1.81351 2.43029,1.22681 3.42159,2.19552 3.62813,3.54549 0.0945,0.61781 0.44973,1.80267 0.78935,2.63301 l 0.61749,1.50973 -1.48709,-1.28259 c -1.46901,-1.267 -4.7576,-3.47862 -5.65271,-3.80153 -0.37265,-0.13443 -0.51894,0.0618 -0.76015,1.01974 -0.16428,0.65242 -0.3941,1.24518 -0.5107,1.31724 -0.1166,0.0721 -1.32235,-0.58872 -2.67944,-1.46842 -1.35708,-0.8797 -2.71398,-1.66262 -3.01531,-1.73981 -1.33997,-0.34324 -6.11075,1.27434 -7.99327,2.71021 l -0.89055,0.67926 0.56015,0.59626 0.56016,0.59626 -0.87139,0.3594 c -0.8701,0.35887 -3.12034,2.25162 -3.12034,2.62462 0,0.10839 0.47625,0.27323 1.05833,0.36631 0.69914,0.11179 1.05833,0.30644 1.05833,0.57352 0,0.77108 1.05807,2.47274 1.97001,3.16831 1.44766,1.10419 3.03797,1.44753 6.73715,1.45454 1.83226,0.003 3.775,0.10935 4.3172,0.23528 0.88417,0.20537 0.96082,0.18228 0.74344,-0.2239 -0.1333,-0.24908 -1.08516,-1.24793 -2.11525,-2.21966 l -1.87288,-1.76678 h -1.7991 c -2.0027,0 -4.17878,-0.54793 -5.08257,-1.27977 l -0.59418,-0.48114 0.76632,-0.54449 c 1.07389,-0.76302 2.68339,-1.39877 3.54121,-1.39877 0.39924,0 1.57057,0.42258 2.60296,0.93906 1.72056,0.86076 1.92759,0.90718 2.48295,0.55672 0.33323,-0.21029 0.87464,-0.46258 1.20315,-0.56064 l 0.59727,-0.17829 -0.55219,0.93589 c -0.3037,0.51474 -0.51294,1.10624 -0.46498,1.31444 0.048,0.20821 1.00078,1.33229 2.11739,2.49796 l 2.03018,2.11941 1.01252,-0.36108 c 1.17505,-0.41903 3.46452,-0.47796 4.97385,-0.12803 0.578,0.13401 1.09168,0.20288 1.14152,0.15304 0.0498,-0.0498 -0.76541,-0.82738 -1.81167,-1.72787 -1.68219,-1.44782 -3.96468,-4.23769 -3.46699,-4.23769 0.1019,0 0.62912,0.3016 1.17159,0.67022 l 0.98632,0.67022 0.80587,-0.5958 c 0.94215,-0.69656 1.53185,-0.48521 1.92336,0.68931 0.18551,0.55656 0.14574,0.83384 -0.16405,1.14363 -0.36887,0.36887 -0.31354,0.52323 0.5646,1.57521 l 0.97355,1.16626 0.29973,-0.72874 0.29974,-0.72874 1.01197,1.57495 c 4.443923,6.91613 5.756103,14.16755 3.941253,21.78029 -0.62338,2.6149 -0.68017,2.65184 -1.894003,1.23179 l -1.05504,-1.23429 -0.4557,2.31933 c -0.56981,2.90003 -1.72814,5.71118 -3.35507,8.1424 -1.23464,1.84501 -4.05425,4.76803 -5.72557,5.93555 l -0.84727,0.59188 -0.27348,-1.01563 c -0.15041,-0.55859 -0.34957,-1.39609 -0.44257,-1.86111 -0.19823,-0.99113 -0.20761,-0.99406 -1.12044,-0.34982 -1.13965,0.80431 -3.75044,2.03473 -5.5971,2.6378 -3.10957,1.01551 -6.34867,1.28615 -9.64479,0.80584 z m 23.11813,-21.54027 c 0.69301,-1.85224 0.68478,-2.38499 -0.0572,-3.69799 -0.57414,-1.01605 -0.65713,-1.06146 -2.07722,-1.13663 -1.40786,-0.0745 -1.58444,-0.008 -3.66232,1.38296 -1.20073,0.80369 -2.58575,1.53679 -3.07781,1.6291 -0.49206,0.0923 -0.89465,0.29197 -0.89465,0.4437 0,0.15172 0.42216,1.03076 0.93814,1.95342 l 0.93815,1.67756 0.98008,-0.40374 c 0.53905,-0.22206 1.53221,-0.74389 2.20702,-1.15964 l 1.22694,-0.7559 0.15921,0.96271 c 0.0876,0.52949 0.16507,1.49849 0.17221,2.15334 l 0.013,1.19062 1.29242,-1.38532 c 0.7817,-0.83788 1.5096,-1.96578 1.842,-2.85419 z m -8.09899,-5.2599 c 0.75489,-0.37499 2.1762,-1.27768 3.15847,-2.00599 l 1.78593,-1.32419 v -1.96144 -1.96145 l -1.7289,-0.95032 c -0.95089,-0.52268 -1.93652,-0.95032 -2.19027,-0.95032 -1.01794,0 -7.45791,3.60008 -7.45791,4.16912 0,0.068 0.68461,1.42812 1.52135,3.0224 l 1.52136,2.8987 1.00872,-0.12736 c 0.5548,-0.0701 1.62636,-0.43417 2.38125,-0.80915 z m 10.96087,-3.10191 c 0.13137,-1.43238 -0.45464,-4.94098 -0.95947,-5.74463 -0.17359,-0.27633 -0.48884,-0.1599 -1.43277,0.52916 l -1.21022,0.88346 -0.0164,1.93691 c -0.0158,1.87072 0.0187,1.9792 1.01027,3.175 0.56466,0.68095 1.18057,1.53575 1.3687,1.89955 l 0.34205,0.66146 0.38063,-0.92605 c 0.20935,-0.50932 0.44208,-1.59601 0.51718,-2.41486 z m -33.2598,-24.41383 c -0.9091,-2.37617 -1.69229,-4.09283 -2.36908,-5.19275 l -0.79373,-1.28998 1.37859,0.80987 c 0.75823,0.44543 1.84645,1.15241 2.41828,1.57106 0.57183,0.41866 1.06753,0.73296 1.10157,0.69845 0.034,-0.0345 -0.15992,-1.42806 -0.431,-3.09678 -0.27109,-1.66871 -0.45423,-3.07269 -0.40698,-3.11994 0.0472,-0.0473 1.55102,0.93111 3.34171,2.17414 1.79069,1.24302 3.32881,2.26004 3.41806,2.26004 0.0892,0 0.50007,-1.0373 0.91295,-2.30511 0.41288,-1.26781 0.95167,-2.77834 1.19732,-3.35674 l 0.44663,-1.05163 1.80893,2.95987 c 0.99492,1.62792 1.89602,2.95986 2.00246,2.95986 0.10644,0 1.36059,-1.27992 2.78699,-2.84427 1.42641,-1.56435 2.68996,-2.88396 2.80789,-2.93246 0.11792,-0.0485 0.22733,0.66586 0.24312,1.5875 0.0158,0.92163 0.1051,2.38546 0.19844,3.25296 l 0.16972,1.57727 1.29954,-1.52356 c 0.71474,-0.83795 1.63365,-1.76146 2.04201,-2.05225 l 0.74249,-0.5287 -0.41252,0.98732 c -0.2269,0.54302 -0.62906,2.10533 -0.8937,3.4718 -0.26465,1.36647 -0.52997,2.53328 -0.58959,2.59291 -0.0596,0.0596 -1.05263,-0.0839 -2.20666,-0.31906 -2.52167,-0.51373 -7.98782,-0.57768 -10.43261,-0.12204 -2.55115,0.47546 -5.71873,1.49559 -7.76067,2.49936 -1.7814,0.87569 -1.81063,0.8805 -2.02016,0.33286 z"
       id="path1" /></g></svg>
