<svg width="467" height="595" viewBox="0 0 467 595" fill="none" xmlns="http://www.w3.org/2000/svg">
<g clip-path="url(#clip0_2309_7279)">
<path d="M187.921 592.935C171.969 590.608 162.305 587.727 145.052 580.153L133.06 574.889L137.505 549.097C140.898 529.403 141.716 515.465 140.962 490.136C140.069 460.112 135.908 432 132.379 432.146C131.626 432.173 126.218 439.317 120.361 448.013C109.78 463.723 64.8055 512.644 60.9444 512.644C59.8342 512.644 56.9151 508.646 54.4574 503.76C42.1751 479.339 35.1695 422.854 39.4993 383.155C41.0174 369.236 41.9078 357.497 41.4779 357.066C41.0476 356.636 31.8169 358.944 20.9644 362.197C10.1117 365.449 0.812713 367.689 0.29992 367.176C-1.44258 365.431 4.72946 336.203 10.4944 318.9C17.4963 297.883 31.8213 269.149 43.2291 253.237C52.6086 240.154 51.7115 238.323 35.7555 237.977C30.8452 237.871 28.0641 236.62 28.0641 234.516C28.0641 223.104 81.7806 157.038 98.2216 148.229C102.939 145.702 103.015 145.948 100.688 156.128C97.1225 171.729 102.012 190.806 112.577 202.513C122.857 213.904 125.913 214.289 121.465 203.632C115.154 188.512 114.533 171.08 119.873 158.994C127.726 141.222 142.705 136.411 162.368 145.346C167.9 147.86 172.426 148.906 172.426 147.67C172.426 143.472 155.28 126.4 149.64 124.983C141.346 122.899 142.725 120.487 155.268 115.136C185.536 102.224 218.717 95.7003 254.259 95.6736C276.89 95.6557 278.668 96.0245 288.982 102.865C294.962 106.83 303.664 114.296 308.321 119.456L316.788 128.839V121.878C316.788 118.05 315.749 112.183 314.48 108.841C313.211 105.498 313.044 102.763 314.11 102.763C318.435 102.763 342.568 112.044 356.337 119.003C378.075 129.988 386.942 138.663 388.789 150.751C389.634 156.284 392.812 166.894 395.849 174.329L401.373 187.848L388.071 176.363C374.931 165.018 345.516 145.213 337.51 142.322C334.177 141.118 332.868 142.875 330.711 151.453C329.241 157.295 327.186 162.603 326.143 163.248C325.1 163.894 314.315 157.977 302.176 150.099C290.038 142.222 277.901 135.211 275.205 134.52C263.22 131.446 220.547 145.931 203.709 158.789L195.743 164.871L200.754 170.211L205.764 175.55L197.97 178.768C190.187 181.982 170.06 198.931 170.06 202.271C170.06 203.241 174.32 204.717 179.526 205.551C185.78 206.552 188.992 208.295 188.992 210.687C188.992 217.591 198.456 232.829 206.613 239.058C219.562 248.946 233.787 252.02 266.874 252.083C283.263 252.11 300.64 253.062 305.49 254.19C313.398 256.029 314.084 255.822 312.14 252.185C310.947 249.954 302.433 241.01 293.22 232.308L276.467 216.487H260.375C242.462 216.487 222.998 211.581 214.914 205.028L209.599 200.719L216.454 195.843C226.059 189.011 240.455 183.318 248.128 183.318C251.699 183.318 262.176 187.102 271.411 191.727C286.8 199.435 288.652 199.85 293.62 196.712C296.6 194.829 301.443 192.57 304.381 191.692L309.724 190.095L304.785 198.476C302.068 203.085 300.196 208.382 300.625 210.246C301.055 212.111 309.577 222.176 319.565 232.614L337.724 251.593L346.78 248.36C357.291 244.607 377.769 244.08 391.269 247.213C396.439 248.413 401.034 249.03 401.48 248.584C401.925 248.138 394.634 241.175 385.275 233.111C370.229 220.147 349.813 195.164 354.264 195.164C355.176 195.164 359.892 197.865 364.744 201.166L373.566 207.167L380.774 201.832C389.201 195.595 394.476 197.487 397.978 208.005C399.637 212.989 399.281 215.472 396.51 218.246C393.211 221.549 393.706 222.931 401.561 232.351L410.269 242.794L412.95 236.269L415.631 229.743L424.682 243.846C464.431 305.778 476.168 370.712 459.935 438.881C454.359 462.297 453.851 462.628 442.994 449.912L433.557 438.859L429.481 459.628C424.384 485.597 414.024 510.769 399.471 532.54C388.428 549.062 363.208 575.236 348.259 585.691L340.68 590.991L338.234 581.897C336.888 576.895 335.107 569.395 334.275 565.231C332.502 556.356 332.418 556.329 324.253 562.098C314.06 569.301 290.707 580.319 274.19 585.719C246.376 594.812 217.403 597.236 187.921 592.935ZM394.703 400.049C400.902 383.463 400.828 378.693 394.191 366.935C389.056 357.837 388.314 357.43 375.611 356.757C363.019 356.09 361.439 356.685 342.853 369.141C332.113 376.337 319.725 382.902 315.324 383.729C310.922 384.555 307.321 386.343 307.321 387.702C307.321 389.061 311.097 396.932 315.713 405.194L324.104 420.216L332.871 416.601C337.692 414.612 346.575 409.94 352.611 406.217L363.586 399.448L365.01 408.069C365.794 412.81 366.486 421.487 366.55 427.351L366.667 438.013L378.227 425.608C385.219 418.105 391.73 408.005 394.703 400.049ZM322.261 352.949C329.013 349.591 341.726 341.508 350.512 334.986L366.486 323.128V305.564V288L351.022 279.49C342.517 274.81 333.701 270.98 331.431 270.98C322.326 270.98 264.723 303.218 264.723 308.313C264.723 308.922 270.847 321.102 278.331 335.378L291.939 361.335L300.961 360.194C305.924 359.567 315.509 356.306 322.261 352.949ZM420.301 325.172C421.476 312.346 416.235 280.927 411.719 273.731C410.167 271.257 407.347 272.299 398.904 278.469L388.079 286.38L387.932 303.725C387.791 320.476 388.099 321.448 396.968 332.156C402.019 338.253 407.528 345.908 409.211 349.166L412.27 355.089L415.675 346.796C417.548 342.236 419.63 332.505 420.301 325.172ZM122.806 106.555C114.674 85.2768 107.669 69.9047 101.616 60.0553L94.5159 48.504L106.847 55.7562C113.629 59.7448 123.363 66.0757 128.477 69.8246C133.592 73.5736 138.026 76.3878 138.33 76.0788C138.635 75.7698 136.9 63.2911 134.475 48.3483C132.051 33.4055 130.412 20.8334 130.835 20.4103C131.257 19.9868 144.708 28.748 160.725 39.8789C176.742 51.0098 190.5 60.1168 191.298 60.1168C192.096 60.1168 195.771 50.8281 199.464 39.4753C203.157 28.1225 207.977 14.5964 210.174 9.41704L214.169 0L230.349 26.5046C239.248 41.0821 247.308 53.0089 248.26 53.0089C249.212 53.0089 260.43 41.5477 273.189 27.5395C285.947 13.5313 297.249 1.71486 298.304 1.28056C299.359 0.846263 300.337 7.24306 300.479 15.496C300.62 23.7489 301.419 36.857 302.254 44.6252L303.772 58.7491L315.396 45.1061C321.789 37.6026 330.008 29.3329 333.661 26.729L340.302 21.9945L336.612 30.8357C334.582 35.6983 330.985 49.6883 328.618 61.9245C326.251 74.1608 323.878 84.609 323.345 85.143C322.811 85.6767 313.929 84.3917 303.607 82.2859C281.052 77.6857 232.159 77.113 210.291 81.1931C187.472 85.4507 159.14 94.5856 140.875 103.574C124.942 111.416 124.68 111.459 122.806 106.555Z" fill="#EBE5EB"/>
</g>
<defs>
<clipPath id="clip0_2309_7279">
<rect width="467" height="595" fill="white"/>
</clipPath>
</defs>
</svg>
